<svg xmlns="http://www.w3.org/2000/svg" width="20" height="20" viewBox="0 0 20 20">
  <g id="copy-svgrepo-com_1_" data-name="copy-svgrepo-com (1)" transform="translate(-2.25 -2.25)">
    <path id="Path_6896" data-name="Path 6896" d="M5.173,16.787A2.926,2.926,0,0,1,2.25,13.864V5.173A2.926,2.926,0,0,1,5.173,2.25h8.691a2.926,2.926,0,0,1,2.923,2.923v.543a.75.75,0,1,1-1.5,0V5.173A1.424,1.424,0,0,0,13.864,3.75H5.173A1.424,1.424,0,0,0,3.75,5.173v8.691a1.424,1.424,0,0,0,1.423,1.423.75.75,0,0,1,0,1.5Z" transform="translate(0 0)"/>
    <path id="Rectangle_6894" data-name="Rectangle 6894" d="M2-.75h9.037A2.753,2.753,0,0,1,13.787,2v9.037a2.753,2.753,0,0,1-2.75,2.75H2a2.753,2.753,0,0,1-2.75-2.75V2A2.753,2.753,0,0,1,2-.75Zm9.037,13.037a1.251,1.251,0,0,0,1.25-1.25V2A1.251,1.251,0,0,0,11.037.75H2A1.251,1.251,0,0,0,.75,2v9.037A1.251,1.251,0,0,0,2,12.287Z" transform="translate(8.463 8.463)"/>
  </g>
</svg>
