<svg width="16" height="16" viewBox="0 0 16 16" fill="none" xmlns="http://www.w3.org/2000/svg">
<path d="M13.6544 2.34588C12.1547 0.846109 10.1214 0.00258364 8.00018 0.000117453C5.87845 0.000117453 3.84364 0.842804 2.34318 2.34306C0.842924 3.84343 0 5.87812 0 7.99994C0 10.1218 0.842924 12.1564 2.34318 13.6568C3.84343 15.1572 5.87824 16 8.00006 16C10.1219 16 12.1565 15.1572 13.6569 13.6568C15.1572 12.1566 16 10.1218 16 7.99994C15.9975 5.87893 15.1542 3.84574 13.6544 2.34588ZM12.7845 12.7839C11.5155 14.053 9.79496 14.7668 8.00042 14.769C6.20507 14.769 4.48298 14.0558 3.2138 12.7863C1.94429 11.5168 1.23105 9.79523 1.23105 7.99981C1.23105 6.20434 1.94417 4.48249 3.2138 3.21331C4.48331 1.9438 6.20501 1.23056 8.0003 1.23056C9.79577 1.23056 11.5176 1.94368 12.7868 3.21331C14.0563 4.48282 14.7696 6.20452 14.7696 7.99981C14.7674 9.79447 14.0535 11.515 12.7845 12.7839Z" fill="white"/>
<path d="M11.9174 8.30575C11.8074 8.48919 11.6117 8.61149 11.3916 8.61149H8.61149V11.3916C8.61149 11.6117 8.50142 11.8074 8.30575 11.9174C8.1223 12.0275 7.8777 12.0275 7.69425 11.9174C7.51081 11.8074 7.38851 11.6117 7.38851 11.3916V8.61149H4.60844C4.3883 8.61149 4.19262 8.50142 4.08255 8.30575C3.97248 8.1223 3.97248 7.8777 4.08255 7.69425C4.19262 7.51081 4.3883 7.38851 4.60844 7.38851H7.38851V4.60844C7.38851 4.3883 7.51081 4.19262 7.69425 4.08255C7.8777 3.97248 8.1223 3.97248 8.30575 4.08255C8.48919 4.19262 8.61149 4.3883 8.61149 4.60844V7.38851H11.3916C11.6117 7.38851 11.8074 7.51081 11.9174 7.69425C12.0275 7.8777 12.0275 8.1223 11.9174 8.30575Z" fill="white"/>
</svg>
