<svg width="10" height="16" viewBox="0 0 10 16" fill="none" xmlns="http://www.w3.org/2000/svg">
<path fill-rule="evenodd" clip-rule="evenodd" d="M6 14C6 12.8954 6.89542 12 8 12C9.10458 12 10 12.8954 10 14C10 15.1046 9.10458 16 8 16C6.89542 16 6 15.1046 6 14Z" fill="#909399"/>
<path fill-rule="evenodd" clip-rule="evenodd" d="M0 14C0 12.8954 0.895448 12 2 12C3.10455 12 4 12.8954 4 14C4 15.1046 3.10455 16 2 16C0.895448 16 0 15.1046 0 14Z" fill="#909399"/>
<path fill-rule="evenodd" clip-rule="evenodd" d="M6 8C6 6.89542 6.89542 6 8 6C9.10458 6 10 6.89542 10 8C10 9.10458 9.10458 10 8 10C6.89542 10 6 9.10458 6 8Z" fill="#909399"/>
<path fill-rule="evenodd" clip-rule="evenodd" d="M0 8C0 6.8954 0.895448 6 2 6C3.10455 6 4 6.8954 4 8C4 9.1046 3.10455 10 2 10C0.895448 10 0 9.1046 0 8Z" fill="#909399"/>
<path fill-rule="evenodd" clip-rule="evenodd" d="M6 2C6 0.895448 6.8954 0 8 0C9.1046 0 10 0.895448 10 2C10 3.10455 9.1046 4 8 4C6.8954 4 6 3.10455 6 2Z" fill="#909399"/>
<path fill-rule="evenodd" clip-rule="evenodd" d="M0 2C0 0.895435 0.895435 0 2 0C3.10456 0 4 0.895435 4 2C4 3.10456 3.10456 4 2 4C0.895435 4 0 3.10456 0 2Z" fill="#909399"/>
</svg>
